# xmcd
#
# Track frame offsets:
#	150
#	18609
#	32373
#	56116
#	70280
#	89524
#	109375
#	133377
#	151484
#	171299
#	191359
#	213815
#	237206
#	258632
#
# Disc length: 3705 seconds
#
# Revision: 1
# Processed by: cddbd v1.5PL3 Copyright (c) Steve Scherf et al.
# Submitted via: audiograbber 1.82.01
#
DISCID=cb0e770e
DTITLE=Eb Davies - Fool For The Ladies
DYEAR=1996
DGENRE=Blues
TTITLE0=Memphis Tennesee
TTITLE1=Before You Accuse Me
TTITLE2=Just To Be With You
TTITLE3=Bluestown
TTITLE4=This Time
TTITLE5=Fool For The Ladies
TTITLE6=When A Blues Man Sings The Blues
TTITLE7=The Perfect Solution
TTITLE8=My Thang
TTITLE9=Heart Fixing Man
TTITLE10=Honest I Do
TTITLE11=Ain't That Loving You Baby
TTITLE12=Give Me Some Of Your Love
TTITLE13=There Is Something On Your Mind
EXTD=
EXTT0=
EXTT1=
EXTT2=
EXTT3=
EXTT4=
EXTT5=
EXTT6=
EXTT7=
EXTT8=
EXTT9=
EXTT10=
EXTT11=
EXTT12=
EXTT13=
PLAYORDER=
